<svg xmlns="http://www.w3.org/2000/svg" height="48px" viewBox="0 -960 960 960" width="48px" fill="#434343"><path d="M279.23-143.08q-22.93 0-39.54-16.61t-16.61-39.54V-741h-18.04q-9.53 0-15.9-6.43-6.37-6.42-6.37-15.69 0-9.26 6.37-15.49t15.9-6.23h146.84v-.5q0-11.16 7.9-19.06 7.9-7.91 19.57-7.91h202.3q10.9 0 18.93 8.04 8.04 8.03 8.04 18.93v.5h147.63q8.55 0 14.92 6.42 6.37 6.43 6.37 15.69 0 9.27-6.42 15.5-6.43 6.23-15.16 6.23h-18.73v541.77q0 22.93-16.61 39.54-16.62 16.61-39.54 16.61H279.23ZM693.38-741H266.92v541.77q0 5.38 3.66 8.84 3.65 3.47 8.65 3.47h401.85q5 0 8.65-3.47 3.65-3.46 3.65-8.84V-741ZM420.23-277.29q6.39-6.03 6.39-15.56v-343.23q0-9.15-6.43-15.71-6.43-6.56-15.69-6.56-9.27 0-15.5 6.56t-6.23 15.71v343.23q0 9.53 6.58 15.56 6.58 6.02 15.54 6.02 8.96 0 15.34-6.02Zm150.93 0q6.38-6.03 6.38-15.56v-343.23q0-9.15-6.43-15.71-6.43-6.56-15.69-6.56-9.27 0-15.5 6.56t-6.23 15.71v343.23q0 9.53 6.58 15.56 6.58 6.02 15.54 6.02 8.96 0 15.35-6.02ZM266.92-741v554.08V-741Z"/></svg>